{"title":"The Mortal Instruments: City of Bones - 2013 (No Cinavia) 1080p","uid":11309410,"size":2092493848,"categoryP":"video","categoryS":"hd___movies","magnet":"?xt=urn:btih:3f5e9bf64decd10967e62faa3afa0085da886194&amp;dn=The+Mortal+Instruments%3A+City+of+Bones+-+2013+%28No+Cinavia%29+1080p&amp;tr=udp%3A%2F%2Ftracker.openbittorrent.com%3A80&amp;tr=udp%3A%2F%2Fopen.demonii.com%3A1337&amp;tr=udp%3A%2F%2Ftracker.coppersurfer.tk%3A6969&amp;tr=udp%3A%2F%2Fexodus.desync.com%3A6969","seeders":4,"leechers":0,"uploader":"AlienMethod","files":6,"time":1414501595,"description":"MP4x264/AAC\nCinavia Removed/CinExHD\n2-Channel Audio\n(processed from Yify Encode)\n\n&quot;When her mother disappears, Clary Fray learns that she descends from a line of warriors who protect our world from demons. She joins forces with others like her and heads into a dangerous alternate New York called Downworld.&quot;\n\n\nVideo\nID : 1\nFormat : AVC\nFormat/Info : Advanced Video Codec\nFormat profile : &lt;a class=&quot;__cf_email__&quot; href=&quot;/cdn-cgi/l/email-protection&quot; data-cfemail=&quot;0a42636d624a463e243b&quot;&gt;[email&amp;#160;protected]&lt;/a&gt;&lt;script cf-hash='f9e31' type=&quot;text/javascript&quot;&gt;\n/* &lt;![CDATA[ */!function(){try{var t=&quot;currentScript&quot;in document?document.currentScript:function(){for(var t=document.getElementsByTagName(&quot;script&quot;),e=t.length;e--;)if(t[e].getAttribute(&quot;cf-hash&quot;))return t[e]}();if(t&amp;&amp;t.previousSibling){var e,r,n,i,c=t.previousSibling,a=c.getAttribute(&quot;data-cfemail&quot;);if(a){for(e=&quot;&quot;,r=parseInt(a.substr(0,2),16),n=2;a.length-n;n+=2)i=parseInt(a.substr(n,2),16)^r,e+=String.fromCharCode(i);e=document.createTextNode(e),c.parentNode.replaceChild(e,c)}}}catch(u){}}();/* ]]&gt; */&lt;/script&gt;\nFormat settings, CABAC : Yes\nFormat settings, ReFrames : 4 frames\nCodec ID : avc1\nCodec ID/Info : Advanced Video Coding\nDuration : 2h 10mn\nBit rate : 2 043 Kbps\nWidth : 1 920 pixels\nHeight : 800 pixels\nDisplay aspect ratio : 2.40:1\nFrame rate mode : Variable\nFrame rate : 23.976 fps\nMinimum frame rate : 23.976 fps\nMaximum frame rate : 24.024 fps\nColor space : YUV\nChroma subsampling : 4:2:0\nBit depth : 8 bits\nScan type : Progressive\nBits/(Pixel*Frame) : 0.055\nStream size : 1.86 GiB (95%)\nWriting library : x264 core 135 r2 f0c1c53\nColor primaries : BT.709\nMatrix coefficients : BT.709\n\nAudio\nID : 2\nFormat : AAC\nFormat/Info : Advanced Audio Codec\nFormat profile : LC\nCodec ID : 40\nDuration : 2h 10mn\nBit rate mode : Variable\nBit rate : 93.7 Kbps\nMaximum bit rate : 375 Kbps\nChannel(s) : 2 channels\nChannel positions : Front: L R\nSampling rate : 48.0 KHz\nCompression mode : Lossy\nStream size : 87.3 MiB (4%)\n\nm/ AM m/","torrent":{"xt":"urn:btih:3f5e9bf64decd10967e62faa3afa0085da886194","amp;dn":"The+Mortal+Instruments%3A+City+of+Bones+-+2013+%28No+Cinavia%29+1080p","amp;tr":["udp%3A%2F%2Ftracker.openbittorrent.com%3A80","udp%3A%2F%2Fopen.demonii.com%3A1337","udp%3A%2F%2Ftracker.coppersurfer.tk%3A6969","udp%3A%2F%2Fexodus.desync.com%3A6969"],"infoHash":"3f5e9bf64decd10967e62faa3afa0085da886194","infoHashBuffer":{"type":"Buffer","data":[63,94,155,246,77,236,209,9,103,230,47,170,58,250,0,133,218,136,97,148]},"announce":[],"urlList":[]}}